<svg xmlns="http://www.w3.org/2000/svg" viewBox="0 0 64 80" x="0px" y="0px"><path d="M57,4.5H23c-2.75684,0-5,2.24316-5,5v12.05066c-12.17291-.91632-16.62292,15.2937-5.89478,20.78577-5.8717,2.03546-10.10522,7.60773-10.10522,14.16357,0,1.6543,1.3457,3,3,3H29c1.6543,0,3-1.3457,3-3,0-3.84381-1.46545-7.34302-3.85107-10h3.85107v1c0,1.6543,1.3457,3,3,3h4v2.18427c-3.12939,1.11981-2.35864,5.78479,1,5.81573,3.35889-.03119,4.12915-4.69647,1-5.81573v-2.18427h4c1.6543,0,3-1.3457,3-3v-1h9c2.75684,0,5-2.24316,5-5V9.5c0-2.75684-2.24316-5-5-5ZM8,32.5c0-4.9624,4.03711-9,9-9,11.9397,.49426,11.93628,17.50781,0,18-4.96289,0-9-4.03711-9-9Zm11.57227,19h-5.14551l2.57129-7.08594,2.57422,7.08594Zm10.42773,5c0,.55176-.44824,1-1,1h-3v-2c0-.55273-.44727-1-1-1s-1,.44727-1,1v2H10v-2c0-.55273-.44727-1-1-1s-1,.44727-1,1v2h-3c-.55176,0-1-.44824-1-1,0-6.53943,4.85901-11.95166,11.15314-12.85321l-3.09259,8.51141c-.24792,.62573,.26611,1.36072,.93945,1.3418h8c.67236,.01862,1.18848-.71582,.93945-1.3418l-3.09253-8.51141c6.29407,.90155,11.15308,6.31378,11.15308,12.85321Zm10,0c-1.31421-.02301-1.31409-1.97723,0-2,1.31421,.02295,1.31409,1.97717,0,2Zm6-9c0,.55176-.44824,1-1,1h-10c-.55176,0-1-.44824-1-1v-1h12v1Zm14-6c0,1.6543-1.3457,3-3,3H25.96216c-1.22607-.91815-2.59277-1.6524-4.06738-2.16357,8.95203-4.45227,7.71851-17.67407-1.89478-20.40997V9.5c0-1.6543,1.3457-3,3-3H57c1.6543,0,3,1.3457,3,3V41.5Z"/><path d="M32,16.5h16c1.31067-.02094,1.3175-1.97772,0-2h-16c-1.30957,.02051-1.31836,1.97754,0,2Z"/><path d="M51,21.5H29c-1.30737,.0199-1.32019,1.97736,0,2h22c1.30737-.01996,1.32019-1.97742,0-2Z"/><path d="M46,30.5c1.31079-.021,1.31738-1.97772,0-2h-12c-1.31079,.02094-1.31738,1.97766,0,2h12Z"/><path d="M50,35.5H30c-1.30957,.0202-1.31836,1.97791,0,2h20c1.30811-.01978,1.31958-1.97784,0-2Z"/><text x="0" y="79" fill="#000000" font-size="5px" font-weight="bold" font-family="'Helvetica Neue', Helvetica, Arial-Unicode, Arial, Sans-serif">Created by LUTFI GANI AL ACHMAD</text><text x="0" y="84" fill="#000000" font-size="5px" font-weight="bold" font-family="'Helvetica Neue', Helvetica, Arial-Unicode, Arial, Sans-serif">from the Noun Project</text></svg>